<svg xmlns="http://www.w3.org/2000/svg" version="1.1" xmlns:xlink="http://www.w3.org/1999/xlink" xmlns:svgjs="http://svgjs.dev/svgjs" width="1000" height="1000" viewBox="0 0 1000 1000"><rect width="1000" height="1000" fill="#ffffff"></rect><g transform="matrix(0.7,0,0,0.7,149.57575757575756,282.1265587044535)"><svg viewBox="0 0 396 247" data-background-color="#ffffff" preserveAspectRatio="xMidYMid meet" height="623" width="1000" xmlns="http://www.w3.org/2000/svg" xmlns:xlink="http://www.w3.org/1999/xlink"><g id="tight-bounds" transform="matrix(1,0,0,1,0.2400000000000091,-0.09999999999999432)"><svg viewBox="0 0 395.52 247.2" height="247.2" width="395.52"><g><svg></svg></g><g><svg viewBox="0 0 395.52 247.2" height="247.2" width="395.52"><g transform="matrix(1,0,0,1,39.55199999999999,97.16459400418312)"><svg viewBox="0 0 316.416 52.87081199163375" height="52.87081199163375" width="316.416"><g><svg viewBox="0 0 316.416 52.87081199163375" height="52.87081199163375" width="316.416"><g><svg viewBox="0 0 316.416 52.87081199163375" height="52.87081199163375" width="316.416"><g id="textblocktransform"><svg viewBox="0 0 316.416 52.87081199163375" height="52.87081199163375" width="316.416" id="textblock"><g><svg viewBox="0 0 316.416 52.87081199163375" height="52.87081199163375" width="316.416"><g transform="matrix(1,0,0,1,0,0)"><svg width="316.416" viewBox="2.3 -35.45 215.13 35.95" height="52.87081199163375" data-palette-color="#7d30f2"><g class="undefined-text-0" data-fill-palette-color="primary" id="text-0"><path d="M6.85 0.1L6.85 0.1Q2.3 0.1 2.3-0.9L2.3-0.9 2.3-33.3Q2.3-35 3.85-35L3.85-35 12.65-35Q20.05-35 23.33-31.95 26.6-28.9 26.6-23.1L26.6-23.1Q26.6-18.3 23.5-14.3L23.5-14.3Q21.95-12.3 18.95-11.1 15.95-9.9 11.95-9.9L11.95-9.9 11.95-0.95Q11.95-0.35 10.08-0.13 8.2 0.1 6.85 0.1ZM13-26.3L11.95-26.3 11.95-18.4 12.6-18.4Q14.35-18.4 15.55-19.5 16.75-20.6 16.75-22.6 16.75-24.6 15.93-25.45 15.1-26.3 13-26.3L13-26.3ZM30.5-2.95L30.5-2.95 30.5-34.05Q30.5-35.1 35.57-35.1 40.65-35.1 40.65-34.05L40.65-34.05 40.65-9.55 48.35-9.55Q49.25-9.55 49.6-7.2L49.6-7.2Q49.75-6.05 49.75-4.85 49.75-3.65 49.6-2.4L49.6-2.4Q49.2 0 48.3 0L48.3 0 32.9 0Q31.8 0 31.15-0.9 30.5-1.8 30.5-2.95ZM76.25 0.1L76.25 0.1Q71.9 0.1 71.55-1.3L71.55-1.3 69.9-7.75 61.95-7.75 60.5-1.55Q60.2 0 55.7 0L55.7 0Q53.3 0 52.15-0.28 51-0.55 51-0.7L51-0.7 59.85-34.55Q59.85-34.95 66.7-34.95 73.55-34.95 73.55-34.55L73.55-34.55 82.2-0.65Q82.2-0.3 79.9-0.1 77.59 0.1 76.25 0.1ZM65.9-24.45L63.2-14.1 68.45-14.1 66.2-24.45 65.9-24.45ZM86.79-12.2L86.79-12.2Q87.74-11.45 90.07-10.15 92.39-8.85 94.52-8.85 96.64-8.85 96.64-10.5L96.64-10.5Q96.64-11.25 96.04-11.83 95.44-12.4 93.84-13.15 92.24-13.9 91.44-14.33 90.64-14.75 89.32-15.73 87.99-16.7 87.29-17.75L87.29-17.75Q85.29-20.6 85.29-25 85.29-29.4 88.57-32.43 91.84-35.45 97.14-35.45L97.14-35.45Q100.74-35.45 103.79-34.68 106.84-33.9 106.94-32.65L106.94-32.65Q106.94-32.5 106.94-32.35L106.94-32.35Q106.94-30.6 105.84-27.93 104.74-25.25 104.29-24.95L104.29-24.95Q101.09-26.6 98.57-26.6 96.04-26.6 96.04-24.8L96.04-24.8Q96.04-23.7 97.89-22.85L97.89-22.85Q98.29-22.65 99.04-22.3 99.79-21.95 100.77-21.48 101.74-21 102.87-20.28 103.99-19.55 105.29-18.35L105.29-18.35Q107.94-15.85 107.94-11.75L107.94-11.75Q107.94-6.4 104.99-3 102.04 0.4 95.89 0.5L95.89 0.5Q92.89 0.5 90.47 0 88.04-0.5 86.24-1.95 84.44-3.4 84.44-5.45 84.44-7.5 85.19-9.53 85.94-11.55 86.79-12.2ZM127.09-25.9L127.09-0.8Q127.09 0.2 122.14 0.2 117.19 0.2 117.19-0.8L117.19-0.8 117.19-25.9 111.19-25.9Q110.34-25.9 109.99-28.2L109.99-28.2Q109.84-29.3 109.84-30.45 109.84-31.6 109.99-32.7L109.99-32.7Q110.34-35 111.19-35L111.19-35 132.94-35Q133.79-35 134.14-32.7L134.14-32.7Q134.29-31.6 134.29-30.45 134.29-29.3 134.14-28.2L134.14-28.2Q133.79-25.9 132.94-25.9L132.94-25.9 127.09-25.9ZM136.99-8.6L140.44-8.6 140.44-26.4 136.89-26.4Q136.04-26.4 135.69-28.55L135.69-28.55Q135.54-29.6 135.54-30.7 135.54-31.8 135.69-32.85L135.69-32.85Q136.04-35 136.89-35L136.89-35 153.69-35Q154.54-35 154.84-32.85L154.84-32.85Q155.04-31.8 155.04-30.7 155.04-29.6 154.84-28.55L154.84-28.55Q154.54-26.4 153.69-26.4L153.69-26.4 150.34-26.4 150.34-8.6 153.84-8.6Q154.69-8.6 155.04-6.45L155.04-6.45Q155.24-5.4 155.24-4.3 155.24-3.2 155.04-2.15L155.04-2.15Q154.69 0 153.84 0L153.84 0 136.99 0Q136.14 0 135.84-2.15L135.84-2.15Q135.64-3.2 135.64-4.3 135.64-5.4 135.84-6.45L135.84-6.45Q136.14-8.6 136.99-8.6L136.99-8.6ZM172.89-35.45Q176.54-35.45 179.31-34.43 182.09-33.4 182.09-31.65 182.09-29.9 180.76-27.33 179.44-24.75 178.54-24.75L178.54-24.75Q178.29-24.75 177.96-25.03 177.64-25.3 176.46-25.63 175.29-25.95 174.44-25.95L174.44-25.95Q171.54-25.95 169.76-23.9 167.99-21.85 167.99-17.63 167.99-13.4 169.81-11.35 171.64-9.3 174.44-9.3L174.44-9.3Q175.59-9.3 177.01-9.63 178.44-9.95 179.04-10.55L179.04-10.55Q179.14-10.65 179.44-10.65 179.74-10.65 180.56-9.53 181.39-8.4 182.09-6.58 182.79-4.75 182.79-3.75L182.79-3.75Q182.79-1.8 179.79-0.65 176.79 0.5 172.69 0.5L172.69 0.5Q166.09 0.5 161.84-4.15 157.59-8.8 157.59-17.28 157.59-25.75 161.96-30.6 166.34-35.45 172.89-35.45L172.89-35.45ZM201.51 0.5Q194.48 0.5 190.06-4.1 185.63-8.7 185.63-17.53 185.63-26.35 190.11-30.9 194.58-35.45 201.66-35.45 208.73-35.45 213.08-30.98 217.43-26.5 217.43-17.43 217.43-8.35 212.98-3.93 208.53 0.5 201.51 0.5ZM201.53-25.85Q199.13-25.85 197.51-23.65 195.88-21.45 195.88-17.48 195.88-13.5 197.43-11.38 198.98-9.25 201.51-9.25 204.03-9.25 205.61-11.4 207.18-13.55 207.18-17.55 207.18-21.55 205.56-23.7 203.93-25.85 201.53-25.85Z" fill="#000000" data-fill-palette-color="primary"></path></g></svg></g></svg></g></svg></g></svg></g></svg></g></svg></g><g mask="url(&quot;#50954df5-28e8-4aa1-a176-1edaa62586ee&quot;)"><g transform="matrix(3.358904109589041, 0, 0, 3.358904109589041, 80.19835616438357, 1)"><svg xmlns="http://www.w3.org/2000/svg" xmlns:xlink="http://www.w3.org/1999/xlink" version="1.1" x="0" y="0" viewBox="16 16 70 73" enable-background="new 0 0 100 100" xml:space="preserve" height="73" width="70" class="icon-none" data-fill-palette-color="accent" id="none"><g fill="#7d30f2" data-fill-palette-color="accent"><g fill="#7d30f2" data-fill-palette-color="accent"><path fill="#000000" d="M35 24H26l-8.192 8.79C16.639 34.219 16 36.009 16 37.856V48h29V37.856c0-1.847-0.639-3.637-1.808-5.066L35 24z" data-fill-palette-color="accent"></path><path fill="#000000" d="M16 81c0 4.418 3.582 8 8 8h13c4.418 0 8-3.582 8-8V68H16V81z" data-fill-palette-color="accent"></path><rect x="17" y="52" fill="#000000" width="27" height="4" data-fill-palette-color="accent"></rect><rect x="17" y="60" fill="#000000" width="27" height="4" data-fill-palette-color="accent"></rect><rect x="26" y="16" fill="#000000" width="9" height="5" data-fill-palette-color="accent"></rect><rect x="58" y="28" fill="#000000" width="9" height="5" data-fill-palette-color="accent"></rect><path fill="#000000" d="M83.657 48.657L73.343 38.343C71.843 36.843 69.808 36 67.686 36H58c-3.314 0-6 2.686-6 6v39c0 4.418 3.268 8 7.686 8H78c4.418 0 8-3.582 8-8V54.314C86 52.192 85.157 50.157 83.657 48.657zM79.414 55.414C79.024 55.805 78.512 56 78 56s-1.024-0.195-1.414-0.586l-9-9c-0.781-0.781-0.781-2.047 0-2.828 0.78-0.781 2.048-0.781 2.828 0l9 9C80.195 53.367 80.195 54.633 79.414 55.414z" data-fill-palette-color="accent"></path></g></g></svg></g></g></svg></g><defs><mask id="50954df5-28e8-4aa1-a176-1edaa62586ee"><rect width="640" height="400" fill="white"></rect><rect width="348.05760000000004" height="77.83387161510761" fill="black" y="84.68306419244618" x="23.731199999999973" id="transform-me"></rect></mask></defs></svg><rect width="395.52" height="247.2" fill="none" stroke="none" visibility="hidden"></rect></g></svg></g></svg>